<svg xmlns="http://www.w3.org/2000/svg" viewBox="0 0 426.64 426.64"><defs><style>.cls-1{fill:#fff;}.cls-2{fill:#fefefe;}.cls-3{fill:#505050;}.cls-4{fill:#454545;}.cls-5{fill:#7a7a7a;}.cls-6{fill:#585858;}</style></defs><title>favicon_1</title><g id="Capa_2" data-name="Capa 2"><g id="Capa_1-2" data-name="Capa 1"><circle class="cls-1" cx="213.32" cy="213.32" r="213.32"/><path d="M406.35,198.65c-.71-3.93-.41-8-.92-11.88a193.53,193.53,0,0,0-81.79-132.4A191.2,191.2,0,0,0,247.38,23c-15.65-2.74-31.39-2.41-47.17-2-21.12.55-41.16,5.78-60.5,13.8a192.48,192.48,0,0,0-66.66,46C57.32,97.35,45.29,116.2,35.91,136.92c-14,31-17.32,63.68-14.67,97.06,2.18,27.53,11.27,53.11,25.06,77A194.23,194.23,0,0,0,170.13,402.4c9.16,2.14,18.45,3.09,27.77,4h3.76a1.46,1.46,0,0,1,1.24-.39h.54c.91.14,1.9-.33,2.73.39h14.3c.64-.64,1.45-.3,2.19-.39h1.83a1.51,1.51,0,0,1,1.25.39H228c4.18-.68,8.45-.36,12.63-.92a193.6,193.6,0,0,0,132.2-81.52,191.44,191.44,0,0,0,31.58-76.59c1-5.91,1-11.91,1.94-17.82v-3.76c-.52-.48-.35-1.11-.39-1.7v-1.38c.09-.74-.25-1.55.39-2.19v-14.3c-.72-.82-.25-1.82-.39-2.73.05-.61-.16-1.28.39-1.78Zm-121.52-49A27.53,27.53,0,1,1,257.29,177,27.59,27.59,0,0,1,284.83,149.63ZM170.12,177.21a27.52,27.52,0,1,1-27.36-27.57A27.7,27.7,0,0,1,170.12,177.21ZM213.9,335.6c-43.22-1.41-78-18.93-103.49-54.07-5.87-8.09-4.49-17.88,3-23.75,7.36-5.74,17.59-4.6,23.63,3.31,8.76,11.5,18.7,21.54,31.43,28.59A90.78,90.78,0,0,0,219,301.3c24.79-1.51,45.56-11.53,62.53-29.49,3.52-3.72,6.42-8,9.8-11.87a16.54,16.54,0,0,1,19.18-4.26,16.86,16.86,0,0,1,10.06,16.91,17.43,17.43,0,0,1-3.53,9C291.52,316.53,256.92,334.08,213.9,335.6Z"/><path class="cls-2" d="M406.35,198.65c-1.64-3.94-1.28-8.2-2-12.3-11.78-70-50-120-114.44-149.43a175.6,175.6,0,0,0-89.76-15.2C127.53,28.25,74.33,64.42,40.85,129a175.12,175.12,0,0,0-19.1,98.25c7.14,76.7,46.4,131,116,163.46,18.17,8.46,37.6,12.77,57.51,14.87.88.09,2.07-.53,2.59.81q-87.25,0-174.53.06c-2.44,0-3.14-.32-3.14-3q.13-190.14,0-380.28c0-2.35.53-2.88,2.88-2.88q190.14.09,380.28,0c2.7,0,3,.7,3,3.14Q406.29,111,406.35,198.65Z"/><path class="cls-2" d="M228,406.35c2.53-1.63,5.48-1,8.2-1.31a192.77,192.77,0,0,0,165.59-149.6,202.26,202.26,0,0,0,3.77-24.1c.07-.68-.25-1.56.79-1.84q0,86.92.07,173.84c0,2.58-.5,3.08-3.08,3.08Q315.66,406.29,228,406.35Z"/><path class="cls-3" d="M406.35,206.17c-1.15-.82-.69-2-.65-3.06.24-.29.45-.26.65,0Z"/><path class="cls-3" d="M203.12,405.7c1.07,0,2.23-.5,3,.65h-3c-.23-.13-.31-.27-.25-.42S203,405.7,203.12,405.7Z"/><path class="cls-4" d="M405.71,222.76c-.1-.85-.33-1.74.64-2.29v2.26C406.15,223.05,405.93,223.06,405.71,222.76Z"/><path class="cls-4" d="M220.47,406.35c.55-1,1.44-.74,2.29-.64.22.15.29.3.21.43s-.16.21-.24.21Z"/><path class="cls-5" d="M406.35,203.16a4.62,4.62,0,0,1-.65,0c-.07-.61-.24-1.27.65-1.45Z"/><path class="cls-6" d="M405.71,222.76l.64,0v1.5c-.19.33-.4.33-.63.05C405.71,223.77,405.71,223.26,405.71,222.76Z"/><path class="cls-5" d="M405.72,224.28l.63-.05v1.51C405.43,225.56,405.62,224.9,405.72,224.28Z"/><path class="cls-5" d="M203.12,405.7a3.49,3.49,0,0,1,0,.65h-1.5C201.84,405.46,202.5,405.63,203.12,405.7Z"/><path class="cls-6" d="M222.73,406.35c0-.22,0-.43,0-.64h1.52c.21.15.27.3.19.43s-.16.2-.24.2Z"/><path class="cls-5" d="M224.23,406.35c0-.21,0-.42.05-.63.62-.1,1.28-.29,1.46.63Z"/></g></g></svg>