<svg xmlns="http://www.w3.org/2000/svg" viewBox="0 0 22.34 22.34"><defs><style>.cls-1{fill:#fff;fill-rule:evenodd;}</style></defs><title>Habilidades</title><g id="Capa_2" data-name="Capa 2"><g id="Capa_3" data-name="Capa 3"><path class="cls-1" d="M0,0V22.34H22.34V0ZM19.31,9.05l-.48.36L15.38,12A1.3,1.3,0,0,0,15,13.37l1.43,4.72c.13.45-.07.6-.46.33l-.47-.33L11.87,15.6a1.31,1.31,0,0,0-1.4,0L6.42,18.42c-.39.27-.59.12-.46-.33l1.43-4.72A1.34,1.34,0,0,0,7,12L3.24,9.21,3,9.05c-.38-.28-.3-.52.17-.53l4.93-.1a1.6,1.6,0,0,0,.42-.1,1.39,1.39,0,0,0,.72-.73l1.42-4.08.2-.58c.15-.44.41-.44.56,0l1.62,4.66a1.34,1.34,0,0,0,1.14.83l4.93.1C19.61,8.53,19.69,8.77,19.31,9.05Z"/></g></g></svg>