<svg id="Icons" xmlns="http://www.w3.org/2000/svg" viewBox="0 0 28 27"><defs><style>.cls-1{fill:#fff;}</style></defs><title>Trabajo</title><path class="cls-1" d="M23,28a2.67,2.67,0,0,1-2.5-1.8c0-.1,0-.2-.1-.2H11.5c0,.1,0,.2-.1.2A2.46,2.46,0,0,1,9,28a1,1,0,0,0,0,2H23a1,1,0,0,0,0-2Z" transform="translate(-2 -3)"/><path class="cls-1" d="M27,3H5A3,3,0,0,0,2,6V21a3,3,0,0,0,3,3H27a3,3,0,0,0,3-3V6A3,3,0,0,0,27,3ZM25.3,18H19.9a3.4,3.4,0,0,0,.1-1,4,4,0,0,0-8,0c0,.3.1.7.1,1H6.7c0-.3-.1-.7-.1-1a8.92,8.92,0,0,1,.3-2.2A.92.92,0,0,1,8,14.1a1.62,1.62,0,0,0,1.6-.8,1.51,1.51,0,0,0-.1-1.7.93.93,0,0,1,.1-1.3,9.72,9.72,0,0,1,3.8-2.2h.3a.87.87,0,0,1,.9.6,1.48,1.48,0,0,0,2.8,0,1,1,0,0,1,1.2-.6,9.72,9.72,0,0,1,3.8,2.2.94.94,0,0,1,.1,1.3,1.51,1.51,0,0,0-.1,1.7,1.62,1.62,0,0,0,1.6.8,1,1,0,0,1,1.1.8,8.33,8.33,0,0,1,.3,2.2A2.48,2.48,0,0,0,25.3,18Z" transform="translate(-2 -3)"/></svg>